<?xml version="1.0" encoding="utf-8"?>
<!-- Generator: Adobe Illustrator 27.6.1, SVG Export Plug-In . SVG Version: 6.00 Build 0)  -->
<svg version="1.1" id="Layer_1" xmlns="http://www.w3.org/2000/svg" xmlns:xlink="http://www.w3.org/1999/xlink" x="0px" y="0px"
	 viewBox="0 0 1545.8 314.2" style="enable-background:new 0 0 1545.8 314.2;" xml:space="preserve">
<g>
	<path d="M243.2,85.7l-86.5,224.5H89L0,85.7h44.1l73,187.7h12.2l71-187.7H243.2z"/>
	<path d="M258.3,197.9c0-62.8,50.2-116.3,120.4-116.3c70.2,0,120.4,53.5,120.4,116.3s-50.2,116.3-120.4,116.3
		C308.5,314.2,258.3,260.8,258.3,197.9z M456.3,197.9c0-44.9-33.1-78.4-77.5-78.4c-44.5,0-77.5,33.5-77.5,78.4s33.1,78.4,77.5,78.4
		C423.2,276.3,456.3,242.8,456.3,197.9z"/>
	<path d="M586.8,310.2H546V8.2h40.8V310.2z"/>
	<path d="M633.8,30.2c0-16.3,13.9-30.2,31-30.2C681.1,0,695,13.9,695,30.2c0,17.1-13.9,31-30.2,31C647.6,61.2,633.8,47.3,633.8,30.2
		z M684.8,310.2H644V85.7h40.8V310.2z"/>
	<path d="M913.3,85.7v36.7c-119.6,0-155.1,45.7-155.1,92.2c0,39.2,31,60.8,67.3,60.8c38.8,0,83.7-25.7,83.7-87.7h4.1
		c0,86.5-32.6,126.5-92.2,126.5c-61.6,0-91.4-44.5-91.4-87.7c0-58.8,47.7-95.5,138.3-104.1H717.4V85.7H795V8.2h40.8v77.5H913.3z"/>
	<path d="M939.8,30.2c0-16.3,13.9-30.2,31-30.2c16.3,0,30.2,13.9,30.2,30.2c0,17.1-13.9,31-30.2,31
		C953.7,61.2,939.8,47.3,939.8,30.2z M990.8,310.2H950V85.7h40.8V310.2z"/>
	<path d="M1037.8,197.9c0-62.8,50.2-116.3,120.4-116.3s120.4,53.5,120.4,116.3s-50.2,116.3-120.4,116.3S1037.8,260.8,1037.8,197.9z
		 M1235.7,197.9c0-44.9-33.1-78.4-77.5-78.4s-77.5,33.5-77.5,78.4s33.1,78.4,77.5,78.4S1235.7,242.8,1235.7,197.9z"/>
	<path d="M1545.8,179.6v130.6H1505V187.7c0-47.7-24.5-71.4-65.3-71.4s-73.5,23.7-73.5,71.4v122.4h-40.8V85.7h40.8v76.7
		c8.2-48.2,39.6-80.8,91.8-80.8C1515.2,81.6,1545.8,118.8,1545.8,179.6z"/>
</g>
</svg>
